<svg version="1.1" xmlns="http://www.w3.org/2000/svg" viewBox="0 0 1170.3206100463867 492.3010833740234" width="2340.6412200927734" height="984.6021667480468">
  <!-- svg-source:excalidraw -->
  
  <defs>
    <style class="style-fonts">
      @font-face {
        font-family: "Virgil";
        src: url("https://excalidraw.com/Virgil.woff2");
      }
      @font-face {
        font-family: "Cascadia";
        src: url("https://excalidraw.com/Cascadia.woff2");
      }
      @font-face {
        font-family: "Assistant";
        src: url("https://excalidraw.com/Assistant-Regular.woff2");
      }
    </style>
    
  </defs>
  <rect x="0" y="0" width="1170.3206100463867" height="492.3010833740234" fill="#ffffff"></rect><g stroke-linecap="round" transform="translate(221.76194763183594 10) rotate(0 13.50335693359375 11.067245483398438)"><path d="M16.16 0.74 C18.87 1.08, 22.58 2.25, 24.37 4.01 C26.16 5.77, 27.12 8.94, 26.91 11.32 C26.71 13.7, 25.04 16.47, 23.14 18.29 C21.24 20.12, 18.41 21.83, 15.52 22.26 C12.64 22.69, 8.37 22.26, 5.81 20.88 C3.26 19.5, 0.95 16.24, 0.19 13.95 C-0.58 11.66, -0.01 9.18, 1.22 7.14 C2.46 5.1, 4.97 2.88, 7.58 1.71 C10.2 0.55, 15.25 0.33, 16.93 0.15 C18.61 -0.04, 17.59 0.34, 17.64 0.61 M12.27 -0.17 C15 -0.68, 18.65 0.23, 21.07 1.65 C23.49 3.08, 26.09 5.99, 26.79 8.38 C27.5 10.77, 26.62 13.77, 25.3 15.98 C23.99 18.18, 21.39 20.57, 18.91 21.63 C16.43 22.68, 13.02 23.01, 10.42 22.29 C7.82 21.57, 5.07 19.35, 3.31 17.32 C1.54 15.28, -0.27 12.31, -0.17 10.08 C-0.08 7.85, 1.93 5.52, 3.9 3.94 C5.87 2.35, 10.25 1.25, 11.62 0.59 C13 -0.07, 12 -0.19, 12.17 -0.01" stroke="#f08c00" stroke-width="2" fill="none"></path></g><g stroke-linecap="round" transform="translate(226.66981506347656 171.2357177734375) rotate(0 14.172698974609375 14.132354736328125)"><path d="M12.27 -0.13 C15.12 -0.85, 19 0.3, 21.5 1.9 C24 3.49, 26.25 6.49, 27.26 9.43 C28.27 12.37, 28.7 16.61, 27.56 19.54 C26.43 22.47, 23.23 25.68, 20.45 27.01 C17.67 28.34, 13.75 28.13, 10.89 27.5 C8.03 26.86, 5.05 25.41, 3.29 23.2 C1.54 20.98, 0.38 17.32, 0.37 14.2 C0.36 11.08, 1.18 6.88, 3.23 4.47 C5.28 2.07, 10.79 0.44, 12.64 -0.22 C14.5 -0.88, 14.31 0.23, 14.36 0.52 M16.2 -0.01 C19.07 0.31, 23.06 2.76, 24.97 5.11 C26.89 7.46, 27.74 11.02, 27.69 14.06 C27.65 17.11, 26.45 21.02, 24.71 23.4 C22.96 25.78, 19.97 27.88, 17.23 28.35 C14.48 28.83, 10.97 27.8, 8.25 26.27 C5.53 24.74, 2.13 21.82, 0.91 19.16 C-0.32 16.51, 0.03 13.07, 0.93 10.33 C1.82 7.6, 3.74 4.5, 6.3 2.75 C8.85 0.99, 14.56 0.11, 16.27 -0.2 C17.98 -0.51, 16.73 0.5, 16.56 0.9" stroke="#2f9e44" stroke-width="2" fill="none"></path></g><g stroke-linecap="round" transform="translate(296.5511932373047 161.49655151367188) rotate(0 14.307647705078125 12.70245361328125)"><path d="M17.68 0.19 C20.46 0.67, 23.67 2.74, 25.52 5.01 C27.38 7.28, 29.02 10.98, 28.79 13.81 C28.55 16.64, 26.36 20.14, 24.13 21.98 C21.89 23.82, 18.29 24.6, 15.36 24.85 C12.43 25.11, 8.94 24.87, 6.53 23.51 C4.12 22.14, 1.86 19.36, 0.92 16.65 C-0.02 13.94, -0.22 9.86, 0.9 7.25 C2.02 4.65, 4.7 2.11, 7.63 1.02 C10.56 -0.07, 16.71 0.72, 18.46 0.7 C20.21 0.67, 18.21 0.66, 18.13 0.87 M13.46 0.61 C16.2 0.34, 19.57 1.32, 21.89 2.9 C24.21 4.49, 26.51 7.53, 27.4 10.13 C28.28 12.74, 28.28 16.24, 27.2 18.52 C26.12 20.8, 23.72 22.8, 20.91 23.8 C18.11 24.81, 13.4 25.12, 10.39 24.54 C7.38 23.97, 4.62 22.46, 2.86 20.38 C1.1 18.3, -0.44 14.92, -0.16 12.09 C0.11 9.26, 2.19 5.32, 4.5 3.39 C6.81 1.47, 12.35 0.95, 13.7 0.55 C15.04 0.16, 12.65 0.79, 12.57 1.02" stroke="#2f9e44" stroke-width="2" fill="none"></path></g><g stroke-linecap="round" transform="translate(393.65223693847656 162.20321655273438) rotate(0 14.307647705078125 12.70245361328125)"><path d="M11.91 -0.09 C14.82 -0.55, 19.47 0.59, 22.05 2.13 C24.64 3.68, 26.57 6.72, 27.42 9.19 C28.27 11.66, 28.16 14.44, 27.14 16.93 C26.12 19.43, 23.85 22.72, 21.29 24.16 C18.72 25.61, 14.84 26.23, 11.75 25.58 C8.65 24.93, 4.76 22.53, 2.74 20.27 C0.71 18.01, -0.6 14.67, -0.39 12.04 C-0.18 9.41, 1.77 6.46, 3.99 4.48 C6.21 2.49, 11.21 0.77, 12.94 0.12 C14.67 -0.54, 14.34 0.32, 14.37 0.54 M13.08 0.61 C15.79 0.36, 19.78 1.71, 22.3 3.34 C24.83 4.98, 27.34 7.94, 28.22 10.41 C29.1 12.89, 29.01 15.9, 27.56 18.17 C26.12 20.44, 22.45 22.85, 19.56 24.03 C16.68 25.2, 13.19 25.88, 10.26 25.22 C7.33 24.55, 3.65 22.43, 2.01 20.01 C0.36 17.59, -0.13 13.4, 0.42 10.7 C0.96 8, 3.16 5.49, 5.28 3.83 C7.41 2.16, 11.77 1.22, 13.18 0.73 C14.59 0.25, 13.73 0.81, 13.76 0.92" stroke="#2f9e44" stroke-width="2" fill="none"></path></g><g stroke-linecap="round"><g transform="translate(299.40708923339844 102.68930053710938) rotate(0 -24.36602783203125 34.26487731933594)"><path d="M0 0 C-8.12 11.42, -40.61 57.11, -48.73 68.53 M0 0 C-8.12 11.42, -40.61 57.11, -48.73 68.53" stroke="#1e1e1e" stroke-width="2" fill="none"></path></g></g><mask></mask><g stroke-linecap="round"><g transform="translate(308.5046844482422 107.2901611328125) rotate(0 0.244049072265625 25.71295166015625)"><path d="M0 0 C0.08 8.57, 0.41 42.85, 0.49 51.43 M0 0 C0.08 8.57, 0.41 42.85, 0.49 51.43" stroke="#1e1e1e" stroke-width="2" fill="none"></path></g></g><mask></mask><g stroke-linecap="round"><g transform="translate(322.9490203857422 103.84451293945312) rotate(0 36.1370849609375 32.90834045410156)"><path d="M0 0 C12.05 10.97, 60.23 54.85, 72.27 65.82 M0 0 C12.05 10.97, 60.23 54.85, 72.27 65.82" stroke="#1e1e1e" stroke-width="2" fill="none"></path></g></g><mask></mask><g stroke-linecap="round" transform="translate(164.6239776611328 248.67959594726562) rotate(0 13.067428588867188 11.769287109375)"><path d="M26.13 11.77 C26.13 12.45, 26.07 13.14, 25.94 13.81 C25.8 14.48, 25.61 15.15, 25.35 15.79 C25.09 16.43, 24.76 17.06, 24.38 17.65 C24.01 18.24, 23.56 18.81, 23.08 19.33 C22.59 19.86, 22.05 20.35, 21.47 20.79 C20.89 21.22, 20.26 21.62, 19.6 21.96 C18.95 22.3, 18.25 22.6, 17.54 22.83 C16.83 23.06, 16.08 23.24, 15.34 23.36 C14.59 23.48, 13.82 23.54, 13.07 23.54 C12.31 23.54, 11.54 23.48, 10.8 23.36 C10.05 23.24, 9.31 23.06, 8.6 22.83 C7.89 22.6, 7.19 22.3, 6.53 21.96 C5.88 21.62, 5.25 21.22, 4.67 20.79 C4.09 20.35, 3.54 19.86, 3.06 19.33 C2.57 18.81, 2.13 18.24, 1.75 17.65 C1.37 17.06, 1.05 16.43, 0.79 15.79 C0.53 15.15, 0.33 14.48, 0.2 13.81 C0.07 13.14, 0 12.45, 0 11.77 C0 11.09, 0.07 10.4, 0.2 9.73 C0.33 9.05, 0.53 8.38, 0.79 7.74 C1.05 7.1, 1.37 6.47, 1.75 5.88 C2.13 5.29, 2.57 4.73, 3.06 4.2 C3.54 3.68, 4.09 3.19, 4.67 2.75 C5.25 2.32, 5.88 1.92, 6.53 1.58 C7.19 1.24, 7.89 0.94, 8.6 0.71 C9.31 0.48, 10.05 0.3, 10.8 0.18 C11.54 0.06, 12.31 0, 13.07 0 C13.82 0, 14.59 0.06, 15.34 0.18 C16.08 0.3, 16.83 0.48, 17.54 0.71 C18.25 0.94, 18.95 1.24, 19.6 1.58 C20.26 1.92, 20.89 2.32, 21.47 2.75 C22.05 3.19, 22.59 3.68, 23.08 4.2 C23.56 4.73, 24.01 5.29, 24.38 5.88 C24.76 6.47, 25.09 7.1, 25.35 7.74 C25.61 8.38, 25.8 9.05, 25.94 9.73 C26.07 10.4, 26.1 11.43, 26.13 11.77 C26.17 12.11, 26.17 11.43, 26.13 11.77" stroke="#2f9e44" stroke-width="2" fill="none"></path></g><g stroke-linecap="round" transform="translate(221.5813446044922 248.94204711914062) rotate(0 13.1494140625 11.861724853515625)"><path d="M26.3 11.86 C26.3 12.55, 26.23 13.25, 26.1 13.92 C25.97 14.6, 25.77 15.27, 25.51 15.92 C25.25 16.56, 24.92 17.2, 24.54 17.79 C24.16 18.39, 23.71 18.96, 23.22 19.49 C22.73 20.01, 22.18 20.51, 21.6 20.95 C21.02 21.39, 20.38 21.79, 19.72 22.13 C19.06 22.48, 18.36 22.77, 17.65 23.01 C16.93 23.24, 16.18 23.42, 15.43 23.54 C14.68 23.66, 13.91 23.72, 13.15 23.72 C12.39 23.72, 11.62 23.66, 10.87 23.54 C10.12 23.42, 9.37 23.24, 8.65 23.01 C7.94 22.77, 7.23 22.48, 6.57 22.13 C5.92 21.79, 5.28 21.39, 4.7 20.95 C4.11 20.51, 3.57 20.01, 3.08 19.49 C2.59 18.96, 2.14 18.39, 1.76 17.79 C1.38 17.2, 1.05 16.56, 0.79 15.92 C0.53 15.27, 0.33 14.6, 0.2 13.92 C0.07 13.25, 0 12.55, 0 11.86 C0 11.18, 0.07 10.48, 0.2 9.8 C0.33 9.13, 0.53 8.45, 0.79 7.8 C1.05 7.16, 1.38 6.53, 1.76 5.93 C2.14 5.34, 2.59 4.76, 3.08 4.24 C3.57 3.71, 4.11 3.22, 4.7 2.78 C5.28 2.33, 5.92 1.93, 6.57 1.59 C7.23 1.25, 7.94 0.95, 8.65 0.72 C9.37 0.48, 10.12 0.3, 10.87 0.18 C11.62 0.06, 12.39 0, 13.15 0 C13.91 0, 14.68 0.06, 15.43 0.18 C16.18 0.3, 16.93 0.48, 17.65 0.72 C18.36 0.95, 19.06 1.25, 19.72 1.59 C20.38 1.93, 21.02 2.33, 21.6 2.78 C22.18 3.22, 22.73 3.71, 23.22 4.24 C23.71 4.76, 24.16 5.34, 24.54 5.93 C24.92 6.53, 25.25 7.16, 25.51 7.8 C25.77 8.45, 25.97 9.13, 26.1 9.8 C26.23 10.48, 26.27 11.52, 26.3 11.86 C26.33 12.21, 26.33 11.52, 26.3 11.86" stroke="#2f9e44" stroke-width="2" fill="none"></path></g><g stroke-linecap="round" transform="translate(274.22862243652344 247.07705688476562) rotate(0 12.39324951171875 11.95208740234375)"><path d="M24.79 11.95 C24.79 12.64, 24.72 13.35, 24.6 14.03 C24.47 14.71, 24.28 15.39, 24.04 16.04 C23.79 16.69, 23.48 17.33, 23.13 17.93 C22.77 18.53, 22.35 19.1, 21.89 19.63 C21.43 20.16, 20.91 20.66, 20.36 21.11 C19.81 21.55, 19.21 21.96, 18.59 22.3 C17.97 22.65, 17.31 22.95, 16.63 23.18 C15.96 23.42, 15.25 23.6, 14.55 23.72 C13.84 23.84, 13.11 23.9, 12.39 23.9 C11.68 23.9, 10.95 23.84, 10.24 23.72 C9.53 23.6, 8.83 23.42, 8.15 23.18 C7.48 22.95, 6.82 22.65, 6.2 22.3 C5.58 21.96, 4.98 21.55, 4.43 21.11 C3.88 20.66, 3.36 20.16, 2.9 19.63 C2.44 19.1, 2.02 18.53, 1.66 17.93 C1.3 17.33, 0.99 16.69, 0.75 16.04 C0.5 15.39, 0.31 14.71, 0.19 14.03 C0.06 13.35, 0 12.64, 0 11.95 C0 11.26, 0.06 10.56, 0.19 9.88 C0.31 9.2, 0.5 8.51, 0.75 7.86 C0.99 7.21, 1.3 6.58, 1.66 5.98 C2.02 5.38, 2.44 4.8, 2.9 4.27 C3.36 3.74, 3.88 3.24, 4.43 2.8 C4.98 2.35, 5.58 1.95, 6.2 1.6 C6.82 1.26, 7.48 0.96, 8.15 0.72 C8.83 0.48, 9.53 0.3, 10.24 0.18 C10.95 0.06, 11.68 0, 12.39 0 C13.11 0, 13.84 0.06, 14.55 0.18 C15.25 0.3, 15.96 0.48, 16.63 0.72 C17.31 0.96, 17.97 1.26, 18.59 1.6 C19.21 1.95, 19.81 2.35, 20.36 2.8 C20.91 3.24, 21.43 3.74, 21.89 4.27 C22.35 4.8, 22.77 5.38, 23.13 5.98 C23.48 6.58, 23.79 7.21, 24.04 7.86 C24.28 8.51, 24.47 9.2, 24.6 9.88 C24.72 10.56, 24.76 11.61, 24.79 11.95 C24.82 12.3, 24.82 11.61, 24.79 11.95" stroke="#2f9e44" stroke-width="2" fill="none"></path></g><g stroke-linecap="round"><g transform="translate(229.6320037841797 195.661376953125) rotate(0 -22.323196411132812 27.41400146484375)"><path d="M0 0 C-7.44 9.14, -37.21 45.69, -44.65 54.83 M0 0 C-7.44 9.14, -37.21 45.69, -44.65 54.83" stroke="#1e1e1e" stroke-width="2" fill="none"></path></g></g><mask></mask><g stroke-linecap="round"><g transform="translate(241.62022399902344 197.37814331054688) rotate(0 -2.48016357421875 25.052947998046875)"><path d="M0 0 C-0.83 8.35, -4.13 41.75, -4.96 50.11 M0 0 C-0.83 8.35, -4.13 41.75, -4.96 50.11" stroke="#1e1e1e" stroke-width="2" fill="none"></path></g></g><mask></mask><g stroke-linecap="round"><g transform="translate(254.2819061279297 192.93484497070312) rotate(0 14.100677490234375 27.185653686523438)"><path d="M0 0 C4.7 9.06, 23.5 45.31, 28.2 54.37 M0 0 C4.7 9.06, 23.5 45.31, 28.2 54.37" stroke="#1e1e1e" stroke-width="2" fill="none"></path></g></g><mask></mask><g transform="translate(83.80299377441406 165.01638793945312) rotate(0 63.960540771484375 8.824872208890213)"><text x="0" y="12.368940887980536" font-family="Virgil, Segoe UI Emoji" font-size="14.119795534224355px" fill="#1e1e1e" text-anchor="start" style="white-space: pre;" direction="ltr" dominant-baseline="alphabetic">computation Owner</text></g><g transform="translate(10 233.11163330078125) rotate(0 72.52796173095703 10)"><text x="0" y="14.016" font-family="Virgil, Segoe UI Emoji" font-size="16px" fill="#1e1e1e" text-anchor="start" style="white-space: pre;" direction="ltr" dominant-baseline="alphabetic">computation Owner</text></g><g transform="translate(117.93226623535156 10.892547607421875) rotate(0 49.7039794921875 10)"><text x="0" y="14.016" font-family="Virgil, Segoe UI Emoji" font-size="16px" fill="#1e1e1e" text-anchor="start" style="white-space: pre;" direction="ltr" dominant-baseline="alphabetic">ROOT Owner</text></g><g stroke-linecap="round" transform="translate(625.9326629638672 79.72201538085938) rotate(0 67.51324462890625 49)"><path d="M85 12.5 C95.43 20.39, 105.85 28.29, 118.03 37.5 M85 12.5 C97.38 21.87, 109.76 31.24, 118.03 37.5 M118.03 37.5 C135.03 50, 135.03 50, 118.03 62.5 M118.03 37.5 C135.03 50, 135.03 50, 118.03 62.5 M118.03 62.5 C106.83 70.3, 95.64 78.09, 85 85.5 M118.03 62.5 C105.24 71.4, 92.46 80.3, 85 85.5 M85 85.5 C68 98, 68 98, 51 85.5 M85 85.5 C68 98, 68 98, 51 85.5 M51 85.5 C37.65 76.47, 24.3 67.44, 17 62.5 M51 85.5 C44.08 80.82, 37.16 76.13, 17 62.5 M17 62.5 C0 50, 0 50, 17 37.5 M17 62.5 C0 50, 0 50, 17 37.5 M17 37.5 C24.66 31.86, 32.33 26.23, 51 12.5 M17 37.5 C28.06 29.37, 39.12 21.24, 51 12.5 M51 12.5 C68 0, 68 0, 85 12.5 M51 12.5 C68 0, 68 0, 85 12.5" stroke="#1e1e1e" stroke-width="2" fill="none"></path></g><g transform="translate(665.5642852783203 119.12201538085935) rotate(0 28.125 9.600000000000023)"><text x="28.125" y="15.45" font-family="Cascadia, Segoe UI Emoji" font-size="16px" fill="#1e1e1e" text-anchor="middle" style="white-space: pre;" direction="ltr" dominant-baseline="alphabetic">Signal</text></g><g stroke-linecap="round" transform="translate(383.2218475341797 239.68215942382812) rotate(0 12.39324951171875 11.95208740234375)"><path d="M24.79 11.95 C24.79 12.64, 24.72 13.35, 24.6 14.03 C24.47 14.71, 24.28 15.39, 24.04 16.04 C23.79 16.69, 23.48 17.33, 23.13 17.93 C22.77 18.53, 22.35 19.1, 21.89 19.63 C21.43 20.16, 20.91 20.66, 20.36 21.11 C19.81 21.55, 19.21 21.96, 18.59 22.3 C17.97 22.65, 17.31 22.95, 16.63 23.18 C15.96 23.42, 15.25 23.6, 14.55 23.72 C13.84 23.84, 13.11 23.9, 12.39 23.9 C11.68 23.9, 10.95 23.84, 10.24 23.72 C9.53 23.6, 8.83 23.42, 8.15 23.18 C7.48 22.95, 6.82 22.65, 6.2 22.3 C5.58 21.96, 4.98 21.55, 4.43 21.11 C3.88 20.66, 3.36 20.16, 2.9 19.63 C2.44 19.1, 2.02 18.53, 1.66 17.93 C1.3 17.33, 0.99 16.69, 0.75 16.04 C0.5 15.39, 0.31 14.71, 0.19 14.03 C0.06 13.35, 0 12.64, 0 11.95 C0 11.26, 0.06 10.56, 0.19 9.88 C0.31 9.2, 0.5 8.51, 0.75 7.86 C0.99 7.21, 1.3 6.58, 1.66 5.98 C2.02 5.38, 2.44 4.8, 2.9 4.27 C3.36 3.74, 3.88 3.24, 4.43 2.8 C4.98 2.35, 5.58 1.95, 6.2 1.6 C6.82 1.26, 7.48 0.96, 8.15 0.72 C8.83 0.48, 9.53 0.3, 10.24 0.18 C10.95 0.06, 11.68 0, 12.39 0 C13.11 0, 13.84 0.06, 14.55 0.18 C15.25 0.3, 15.96 0.48, 16.63 0.72 C17.31 0.96, 17.97 1.26, 18.59 1.6 C19.21 1.95, 19.81 2.35, 20.36 2.8 C20.91 3.24, 21.43 3.74, 21.89 4.27 C22.35 4.8, 22.77 5.38, 23.13 5.98 C23.48 6.58, 23.79 7.21, 24.04 7.86 C24.28 8.51, 24.47 9.2, 24.6 9.88 C24.72 10.56, 24.76 11.61, 24.79 11.95 C24.82 12.3, 24.82 11.61, 24.79 11.95" stroke="#2f9e44" stroke-width="2" fill="none"></path></g><g stroke-linecap="round" transform="translate(449.4479217529297 236.74090576171875) rotate(0 12.39324951171875 11.95208740234375)"><path d="M24.79 11.95 C24.79 12.64, 24.72 13.35, 24.6 14.03 C24.47 14.71, 24.28 15.39, 24.04 16.04 C23.79 16.69, 23.48 17.33, 23.13 17.93 C22.77 18.53, 22.35 19.1, 21.89 19.63 C21.43 20.16, 20.91 20.66, 20.36 21.11 C19.81 21.55, 19.21 21.96, 18.59 22.3 C17.97 22.65, 17.31 22.95, 16.63 23.18 C15.96 23.42, 15.25 23.6, 14.55 23.72 C13.84 23.84, 13.11 23.9, 12.39 23.9 C11.68 23.9, 10.95 23.84, 10.24 23.72 C9.53 23.6, 8.83 23.42, 8.15 23.18 C7.48 22.95, 6.82 22.65, 6.2 22.3 C5.58 21.96, 4.98 21.55, 4.43 21.11 C3.88 20.66, 3.36 20.16, 2.9 19.63 C2.44 19.1, 2.02 18.53, 1.66 17.93 C1.3 17.33, 0.99 16.69, 0.75 16.04 C0.5 15.39, 0.31 14.71, 0.19 14.03 C0.06 13.35, 0 12.64, 0 11.95 C0 11.26, 0.06 10.56, 0.19 9.88 C0.31 9.2, 0.5 8.51, 0.75 7.86 C0.99 7.21, 1.3 6.58, 1.66 5.98 C2.02 5.38, 2.44 4.8, 2.9 4.27 C3.36 3.74, 3.88 3.24, 4.43 2.8 C4.98 2.35, 5.58 1.95, 6.2 1.6 C6.82 1.26, 7.48 0.96, 8.15 0.72 C8.83 0.48, 9.53 0.3, 10.24 0.18 C10.95 0.06, 11.68 0, 12.39 0 C13.11 0, 13.84 0.06, 14.55 0.18 C15.25 0.3, 15.96 0.48, 16.63 0.72 C17.31 0.96, 17.97 1.26, 18.59 1.6 C19.21 1.95, 19.81 2.35, 20.36 2.8 C20.91 3.24, 21.43 3.74, 21.89 4.27 C22.35 4.8, 22.77 5.38, 23.13 5.98 C23.48 6.58, 23.79 7.21, 24.04 7.86 C24.28 8.51, 24.47 9.2, 24.6 9.88 C24.72 10.56, 24.76 11.61, 24.79 11.95 C24.82 12.3, 24.82 11.61, 24.79 11.95" stroke="#2f9e44" stroke-width="2" fill="none"></path></g><g stroke-linecap="round"><g transform="translate(406.6229705810547 190.49725341796875) rotate(0 -5.813568115234375 24.545196533203125)"><path d="M0 0 C-1.94 8.18, -9.69 40.91, -11.63 49.09 M0 0 C-1.94 8.18, -9.69 40.91, -11.63 49.09" stroke="#1e1e1e" stroke-width="2" fill="none"></path></g></g><mask></mask><g stroke-linecap="round"><g transform="translate(420.17674255371094 190.67120361328125) rotate(0 17.65472412109375 23.960586547851562)"><path d="M0 0 C5.88 7.99, 29.42 39.93, 35.31 47.92 M0 0 C5.88 7.99, 29.42 39.93, 35.31 47.92" stroke="#1e1e1e" stroke-width="2" fill="none"></path></g></g><mask></mask><g mask="url(#mask-gUDtI0ZK4GUo2voyerb9R)" stroke-linecap="round"><g transform="translate(425.3063283882452 171.19117786760853) rotate(0 101.38095261791102 -19.841789256430275)"><path d="M0 0 C33.79 -6.61, 168.97 -33.07, 202.76 -39.68 M0 0 C33.79 -6.61, 168.97 -33.07, 202.76 -39.68" stroke="#1e1e1e" stroke-width="2" fill="none"></path></g><g transform="translate(425.3063283882452 171.19117786760853) rotate(0 101.38095261791102 -19.841789256430275)"><path d="M181.35 -26.78 C187.6 -30.54, 193.84 -34.31, 202.76 -39.68 M181.35 -26.78 C188.93 -31.35, 196.52 -35.92, 202.76 -39.68" stroke="#1e1e1e" stroke-width="2" fill="none"></path></g><g transform="translate(425.3063283882452 171.19117786760853) rotate(0 101.38095261791102 -19.841789256430275)"><path d="M178.06 -43.56 C185.27 -42.43, 192.47 -41.3, 202.76 -39.68 M178.06 -43.56 C186.81 -42.19, 195.56 -40.81, 202.76 -39.68" stroke="#1e1e1e" stroke-width="2" fill="none"></path></g></g><mask id="mask-gUDtI0ZK4GUo2voyerb9R"><rect x="0" y="0" fill="#fff" width="728.0682336240673" height="310.8747563804691"></rect><rect x="465.74978100615635" y="141.74938861117823" fill="#000" width="121.875" height="19.2" opacity="1"></rect></mask><g transform="translate(465.74978100615624 141.74938861117818) rotate(0 60.9375 9.600000000000023)"><text x="60.9375" y="15.45" font-family="Cascadia, Segoe UI Emoji" font-size="16px" fill="#1e1e1e" text-anchor="middle" style="white-space: pre;" direction="ltr" dominant-baseline="alphabetic">sub when read</text></g><g mask="url(#mask--_lxfN33B8AShPNqyHnJk)" stroke-linecap="round"><g transform="translate(687.209109702821 171.7800927817235) rotate(0 -133.71946579212369 7.1683463295216825)"><path d="M0 0 C-44.57 2.39, -222.87 11.95, -267.44 14.34 M0 0 C-44.57 2.39, -222.87 11.95, -267.44 14.34" stroke="#1e1e1e" stroke-width="2" fill="none"></path></g><g transform="translate(687.209109702821 171.7800927817235) rotate(0 -133.71946579212369 7.1683463295216825)"><path d="M-244.44 4.54 C-250.75 7.23, -257.06 9.92, -267.44 14.34 M-244.44 4.54 C-250.37 7.07, -256.31 9.6, -267.44 14.34" stroke="#1e1e1e" stroke-width="2" fill="none"></path></g><g transform="translate(687.209109702821 171.7800927817235) rotate(0 -133.71946579212369 7.1683463295216825)"><path d="M-243.52 21.62 C-250.09 19.62, -256.65 17.62, -267.44 14.34 M-243.52 21.62 C-249.69 19.74, -255.86 17.86, -267.44 14.34" stroke="#1e1e1e" stroke-width="2" fill="none"></path></g></g><mask id="mask--_lxfN33B8AShPNqyHnJk"><rect x="0" y="0" fill="#fff" width="1054.6480412870683" height="286.1167854407669"></rect><rect x="469.1146439106974" y="169.34843911124517" fill="#000" width="168.75" height="19.2" opacity="1"></rect></mask><g transform="translate(469.1146439106974 169.34843911124517) rotate(0 84.37499999999994 9.600000000000023)"><text x="84.375" y="15.45" font-family="Cascadia, Segoe UI Emoji" font-size="16px" fill="#1e1e1e" text-anchor="middle" style="white-space: pre;" direction="ltr" dominant-baseline="alphabetic">execute when write</text></g><g mask="url(#mask-eNcj00lidRBAgRcrds1dD)" stroke-linecap="round"><g transform="translate(241.5948715209961 250.87571716308594) rotate(0 76.96961975097656 -33.651214599609375)"><path d="M0 0 C25.66 -11.22, 128.28 -56.09, 153.94 -67.3 M0 0 C25.66 -11.22, 128.28 -56.09, 153.94 -67.3" stroke="#1e1e1e" stroke-width="2" fill="none"></path></g><g transform="translate(241.5948715209961 250.87571716308594) rotate(0 76.96961975097656 -33.651214599609375)"><path d="M135.84 -50.06 C140.38 -54.38, 144.92 -58.71, 153.94 -67.3 M135.84 -50.06 C139.82 -53.85, 143.8 -57.64, 153.94 -67.3" stroke="#1e1e1e" stroke-width="2" fill="none"></path></g><g transform="translate(241.5948715209961 250.87571716308594) rotate(0 76.96961975097656 -33.651214599609375)"><path d="M128.99 -65.73 C135.25 -66.12, 141.51 -66.52, 153.94 -67.3 M128.99 -65.73 C134.47 -66.07, 139.96 -66.42, 153.94 -67.3" stroke="#1e1e1e" stroke-width="2" fill="none"></path></g></g><mask id="mask-eNcj00lidRBAgRcrds1dD"><rect x="0" y="0" fill="#fff" width="495.5341110229492" height="418.1781463623047"></rect><rect x="305.66605377197266" y="208.02450256347652" fill="#000" width="25.796875" height="18.4" opacity="1"></rect></mask><g transform="translate(305.66605377197266 208.02450256347652) rotate(0 12.8984375 9.200000000000045)"><text x="12.8984375" y="14.720312499999999" font-family="Helvetica, Segoe UI Emoji" font-size="16px" fill="#1e1e1e" text-anchor="middle" style="white-space: pre;" direction="ltr" dominant-baseline="alphabetic">sub</text></g><g stroke-linecap="round"><g transform="translate(305.29113006591797 218.60301208496094) rotate(0 0 0)"><path d="M0 0 C0 0, 0 0, 0 0 M0 0 C0 0, 0 0, 0 0" stroke="#1e1e1e" stroke-width="1" fill="none"></path></g><g transform="translate(305.29113006591797 218.60301208496094) rotate(0 0 0)"><path d="MNaN NaN CNaN NaN, NaN NaN, 0 0 MNaN NaN CNaN NaN, NaN NaN, 0 0" stroke="#1e1e1e" stroke-width="1" fill="none"></path></g><g transform="translate(305.29113006591797 218.60301208496094) rotate(0 0 0)"><path d="MNaN NaN CNaN NaN, NaN NaN, 0 0 MNaN NaN CNaN NaN, NaN NaN, 0 0" stroke="#1e1e1e" stroke-width="1" fill="none"></path></g></g><mask></mask><g stroke-linecap="round" transform="translate(296.2601547241211 79.98045349121094) rotate(0 14.307647705078125 12.70245361328125)"><path d="M16.36 0.18 C19.32 0.49, 23.43 2.2, 25.51 4.33 C27.59 6.46, 28.91 10.13, 28.84 12.95 C28.76 15.77, 27.05 19.19, 25.07 21.24 C23.1 23.3, 19.9 24.84, 16.97 25.27 C14.05 25.7, 10.19 25.14, 7.54 23.84 C4.89 22.55, 2.17 20.1, 1.09 17.5 C0.02 14.9, 0.15 10.8, 1.09 8.24 C2.02 5.68, 3.98 3.42, 6.7 2.15 C9.41 0.88, 15.53 0.88, 17.37 0.62 C19.21 0.36, 17.82 0.44, 17.75 0.59 M15.98 0.22 C18.87 0.57, 22.63 2.5, 24.63 4.62 C26.62 6.74, 27.94 10.32, 27.96 12.93 C27.97 15.54, 26.65 18.3, 24.72 20.29 C22.78 22.28, 19.16 24.33, 16.34 24.87 C13.51 25.42, 10.29 24.82, 7.78 23.57 C5.26 22.32, 2.51 19.97, 1.27 17.37 C0.03 14.77, -0.61 10.5, 0.33 7.96 C1.28 5.43, 4.14 3.58, 6.94 2.17 C9.73 0.75, 15.46 -0.16, 17.1 -0.54 C18.74 -0.92, 16.93 -0.55, 16.79 -0.12" stroke="#2f9e44" stroke-width="2" fill="none"></path></g><g stroke-linecap="round" transform="translate(194.32991790771484 78.86033630371094) rotate(0 14.307647705078125 12.70245361328125)"><path d="M12.7 -0.05 C15.56 -0.51, 19.82 0.76, 22.33 2.21 C24.84 3.65, 26.9 6.11, 27.76 8.62 C28.62 11.13, 28.59 14.7, 27.49 17.25 C26.38 19.8, 23.82 22.62, 21.13 23.91 C18.44 25.21, 14.46 25.52, 11.37 25.02 C8.28 24.52, 4.52 23.07, 2.59 20.91 C0.67 18.76, -0.4 14.89, -0.17 12.08 C0.06 9.26, 1.77 5.97, 3.97 4.01 C6.18 2.06, 11.36 0.91, 13.05 0.33 C14.74 -0.25, 14.06 0.35, 14.11 0.54 M16.3 -0.18 C19.15 -0.04, 22.75 2.23, 24.9 4.21 C27.04 6.19, 28.98 9.15, 29.18 11.72 C29.38 14.29, 28.14 17.41, 26.1 19.65 C24.06 21.89, 19.94 24.4, 16.92 25.16 C13.9 25.92, 10.59 25.54, 7.98 24.2 C5.38 22.85, 2.4 19.72, 1.29 17.09 C0.18 14.46, 0.54 10.81, 1.32 8.42 C2.1 6.02, 3.38 4.18, 5.96 2.72 C8.53 1.27, 15.02 -0.03, 16.79 -0.32 C18.57 -0.62, 16.76 0.68, 16.6 0.94" stroke="#2f9e44" stroke-width="2" fill="none"></path></g><g stroke-linecap="round" transform="translate(84.08358001708984 83.70426940917969) rotate(0 14.307647705078125 13.386093139648438)"><path d="M12.1 -0.08 C14.95 -0.68, 19.66 0.15, 22.26 1.68 C24.87 3.22, 26.92 6.37, 27.75 9.13 C28.58 11.89, 28.33 15.58, 27.25 18.24 C26.16 20.91, 23.98 23.81, 21.25 25.11 C18.51 26.42, 13.84 26.73, 10.83 26.06 C7.82 25.39, 4.92 23.4, 3.17 21.12 C1.42 18.84, 0.29 15.24, 0.33 12.37 C0.37 9.5, 1.27 5.98, 3.41 3.92 C5.55 1.85, 11.51 0.56, 13.16 -0.02 C14.81 -0.6, 13.34 0.14, 13.31 0.46 M16.79 -0.17 C19.84 -0.19, 22.99 1.38, 24.93 3.59 C26.87 5.79, 28.27 10.17, 28.42 13.05 C28.58 15.93, 27.74 18.56, 25.86 20.87 C23.99 23.19, 20.22 26.22, 17.17 26.94 C14.12 27.66, 10.21 26.67, 7.58 25.19 C4.96 23.71, 2.67 20.81, 1.42 18.06 C0.17 15.31, -0.79 11.32, 0.08 8.71 C0.95 6.1, 4.09 3.86, 6.64 2.4 C9.19 0.93, 13.76 0.16, 15.4 -0.08 C17.03 -0.32, 16.45 0.71, 16.47 0.96" stroke="#2f9e44" stroke-width="2" fill="none"></path></g><g stroke-linecap="round"><g transform="translate(225.2883529663086 29.659530639648438) rotate(0 -57.040008544921875 25.2457275390625)"><path d="M0 0 C-19.01 8.42, -95.07 42.08, -114.08 50.49 M0 0 C-19.01 8.42, -95.07 42.08, -114.08 50.49" stroke="#1e1e1e" stroke-width="2" fill="none"></path></g></g><mask></mask><g stroke-linecap="round"><g transform="translate(240.70140838623047 32.96098327636719) rotate(0 -16.090484619140625 23.700210571289062)"><path d="M0 0 C-5.36 7.9, -26.82 39.5, -32.18 47.4 M0 0 C-5.36 7.9, -26.82 39.5, -32.18 47.4" stroke="#1e1e1e" stroke-width="2" fill="none"></path></g></g><mask></mask><g stroke-linecap="round"><g transform="translate(248.82579803466797 29.058792114257812) rotate(0 27.561767578125 26.975906372070312)"><path d="M0 0 C9.19 8.99, 45.94 44.96, 55.12 53.95 M0 0 C9.19 8.99, 45.94 44.96, 55.12 53.95" stroke="#1e1e1e" stroke-width="2" fill="none"></path></g></g><mask></mask><g mask="url(#mask-0i9bCGDSOuX0udMeCI-0j)" stroke-linecap="round"><g transform="translate(331.97614201742533 94.64977736991295) rotate(0 156.2844154110416 8.591145084838558)"><path d="M0 0 C52.09 2.86, 260.47 14.32, 312.57 17.18 M0 0 C52.09 2.86, 260.47 14.32, 312.57 17.18" stroke="#1e1e1e" stroke-width="2" fill="none"></path></g><g transform="translate(331.97614201742533 94.64977736991295) rotate(0 156.2844154110416 8.591145084838558)"><path d="M288.64 24.43 C296.41 22.08, 304.17 19.73, 312.57 17.18 M288.64 24.43 C296.18 22.15, 303.71 19.87, 312.57 17.18" stroke="#1e1e1e" stroke-width="2" fill="none"></path></g><g transform="translate(331.97614201742533 94.64977736991295) rotate(0 156.2844154110416 8.591145084838558)"><path d="M289.58 7.36 C297.04 10.54, 304.5 13.73, 312.57 17.18 M289.58 7.36 C296.82 10.45, 304.06 13.54, 312.57 17.18" stroke="#1e1e1e" stroke-width="2" fill="none"></path></g></g><mask id="mask-0i9bCGDSOuX0udMeCI-0j"><rect x="0" y="0" fill="#fff" width="744.5449728395085" height="211.83206753959007"></rect><rect x="475.36211992846677" y="94.04092245475158" fill="#000" width="25.796875" height="18.4" opacity="1"></rect></mask><g transform="translate(475.3621199284669 94.04092245475152) rotate(0 12.898437500000057 9.199999999999989)"><text x="12.8984375" y="14.720312499999999" font-family="Helvetica, Segoe UI Emoji" font-size="16px" fill="#1e1e1e" text-anchor="middle" style="white-space: pre;" direction="ltr" dominant-baseline="alphabetic">sub</text></g><g mask="url(#mask-8a1ZpTnidgxvO_pgiKHiO)" stroke-linecap="round"><g transform="translate(113.67827567523926 96.34427726508227) rotate(0 38.58589021271666 -1.7500776287685085)"><path d="M0 0 C12.86 -0.58, 64.31 -2.92, 77.17 -3.5 M0 0 C12.86 -0.58, 64.31 -2.92, 77.17 -3.5" stroke="#1e1e1e" stroke-width="2" fill="none"></path></g><g transform="translate(113.67827567523926 96.34427726508227) rotate(0 38.58589021271666 -1.7500776287685085)"><path d="M54.09 6.11 C63.32 2.27, 72.55 -1.58, 77.17 -3.5 M54.09 6.11 C62.13 2.76, 70.18 -0.59, 77.17 -3.5" stroke="#1e1e1e" stroke-width="2" fill="none"></path></g><g transform="translate(113.67827567523926 96.34427726508227) rotate(0 38.58589021271666 -1.7500776287685085)"><path d="M53.32 -10.98 C62.85 -7.99, 72.39 -5, 77.17 -3.5 M53.32 -10.98 C61.63 -8.37, 69.94 -5.77, 77.17 -3.5" stroke="#1e1e1e" stroke-width="2" fill="none"></path></g></g><mask id="mask-8a1ZpTnidgxvO_pgiKHiO"><rect x="0" y="0" fill="#fff" width="290.8500561006726" height="199.8444325226193"></rect><rect x="139.36572838795593" y="85.39419963631383" fill="#000" width="25.796875" height="18.4" opacity="1"></rect></mask><g transform="translate(139.36572838795587 85.39419963631377) rotate(0 12.8984375 9.199999999999989)"><text x="12.8984375" y="14.720312499999999" font-family="Helvetica, Segoe UI Emoji" font-size="16px" fill="#1e1e1e" text-anchor="middle" style="white-space: pre;" direction="ltr" dominant-baseline="alphabetic">sub</text></g><g mask="url(#mask-gynL04KktF5n4m_mQ-f_F)" stroke-linecap="round"><g transform="translate(225.08595000086387 92.45121980737042) rotate(0 36.57404083819111 -0.14570725475942936)"><path d="M0 0 C12.19 -0.05, 60.96 -0.24, 73.15 -0.29 M0 0 C12.19 -0.05, 60.96 -0.24, 73.15 -0.29" stroke="#1e1e1e" stroke-width="2" fill="none"></path></g><g transform="translate(225.08595000086387 92.45121980737042) rotate(0 36.57404083819111 -0.14570725475942936)"><path d="M49.69 8.35 C57.91 5.32, 66.14 2.29, 73.15 -0.29 M49.69 8.35 C58.33 5.17, 66.98 1.98, 73.15 -0.29" stroke="#1e1e1e" stroke-width="2" fill="none"></path></g><g transform="translate(225.08595000086387 92.45121980737042) rotate(0 36.57404083819111 -0.14570725475942936)"><path d="M49.62 -8.75 C57.87 -5.78, 66.12 -2.82, 73.15 -0.29 M49.62 -8.75 C58.29 -5.63, 66.96 -2.52, 73.15 -0.29" stroke="#1e1e1e" stroke-width="2" fill="none"></path></g></g><mask id="mask-gynL04KktF5n4m_mQ-f_F"><rect x="0" y="0" fill="#fff" width="398.2340316772461" height="192.74263431688928"></rect><rect x="248.76155333905496" y="83.105512552611" fill="#000" width="25.796875" height="18.4" opacity="1"></rect></mask><g transform="translate(248.761553339055 83.10551255261106) rotate(0 12.898437499999972 9.199999999999989)"><text x="12.8984375" y="14.720312499999999" font-family="Helvetica, Segoe UI Emoji" font-size="16px" fill="#1e1e1e" text-anchor="middle" style="white-space: pre;" direction="ltr" dominant-baseline="alphabetic">sub</text></g><g mask="url(#mask-XL-38f8HjnfTY8TN036qV)" stroke-linecap="round"><g transform="translate(239.33834075927734 246.14170837402344) rotate(0 29.86651611328125 -36.34205627441406)"><path d="M0 0 C9.96 -12.11, 49.78 -60.57, 59.73 -72.68 M0 0 C9.96 -12.11, 49.78 -60.57, 59.73 -72.68" stroke="#1e1e1e" stroke-width="2" fill="none"></path></g><g transform="translate(239.33834075927734 246.14170837402344) rotate(0 29.86651611328125 -36.34205627441406)"><path d="M51.42 -49.11 C54.32 -57.32, 57.21 -65.54, 59.73 -72.68 M51.42 -49.11 C53.57 -55.19, 55.71 -61.28, 59.73 -72.68" stroke="#1e1e1e" stroke-width="2" fill="none"></path></g><g transform="translate(239.33834075927734 246.14170837402344) rotate(0 29.86651611328125 -36.34205627441406)"><path d="M38.21 -59.96 C45.71 -64.4, 53.21 -68.83, 59.73 -72.68 M38.21 -59.96 C43.77 -63.25, 49.32 -66.53, 59.73 -72.68" stroke="#1e1e1e" stroke-width="2" fill="none"></path></g></g><mask id="mask-XL-38f8HjnfTY8TN036qV"><rect x="0" y="0" fill="#fff" width="399.07137298583984" height="418.82582092285156"></rect><rect x="256.3064193725586" y="200.59965209960933" fill="#000" width="25.796875" height="18.4" opacity="1"></rect></mask><g transform="translate(256.3064193725586 200.59965209960933) rotate(0 12.8984375 9.200000000000045)"><text x="12.8984375" y="14.720312499999999" font-family="Helvetica, Segoe UI Emoji" font-size="16px" fill="#1e1e1e" text-anchor="middle" style="white-space: pre;" direction="ltr" dominant-baseline="alphabetic">sub</text></g><g mask="url(#mask-0m9_H3x4-9edPoEuf_NyC)" stroke-linecap="round"><g transform="translate(320.0603239173731 157.45289542431487) rotate(0 1.2016145815063055 -27.43847995890917)"><path d="M0 0 C0.4 -9.15, 2 -45.73, 2.4 -54.88 M0 0 C0.4 -9.15, 2 -45.73, 2.4 -54.88" stroke="#1e1e1e" stroke-width="2" fill="none"></path></g><g transform="translate(320.0603239173731 157.45289542431487) rotate(0 1.2016145815063055 -27.43847995890917)"><path d="M9.92 -31.03 C7.36 -39.15, 4.8 -47.27, 2.4 -54.88 M9.92 -31.03 C7.74 -37.94, 5.57 -44.84, 2.4 -54.88" stroke="#1e1e1e" stroke-width="2" fill="none"></path></g><g transform="translate(320.0603239173731 157.45289542431487) rotate(0 1.2016145815063055 -27.43847995890917)"><path d="M-7.17 -31.78 C-3.91 -39.64, -0.65 -47.51, 2.4 -54.88 M-7.17 -31.78 C-4.4 -38.47, -1.62 -45.16, 2.4 -54.88" stroke="#1e1e1e" stroke-width="2" fill="none"></path></g></g><mask id="mask-0m9_H3x4-9edPoEuf_NyC"><rect x="0" y="0" fill="#fff" width="422.46355308038574" height="312.3298553421332"></rect><rect x="308.36350099887943" y="120.81441546540566" fill="#000" width="25.796875" height="18.4" opacity="1"></rect></mask><g transform="translate(308.36350099887943 120.81441546540566) rotate(0 12.8984375 9.200000000000045)"><text x="12.8984375" y="14.720312499999999" font-family="Helvetica, Segoe UI Emoji" font-size="16px" fill="#1e1e1e" text-anchor="middle" style="white-space: pre;" direction="ltr" dominant-baseline="alphabetic">sub</text></g><g transform="translate(23.64873504638672 353.50108337402344) rotate(0 568.3359375 64.39999999999998)"><text x="0" y="14.720312499999999" font-family="Helvetica, Segoe UI Emoji" font-size="16px" fill="#1e1e1e" text-anchor="start" style="white-space: pre;" direction="ltr" dominant-baseline="alphabetic">  Reaction happends like propagation from center point(Signal) to computation edges. but if adopting a way like invoking observers on every computation owner, </text><text x="0" y="33.1203125" font-family="Helvetica, Segoe UI Emoji" font-size="16px" fill="#1e1e1e" text-anchor="start" style="white-space: pre;" direction="ltr" dominant-baseline="alphabetic">  then couldn't ensure the update order which is based on dependencies. There are two types of dependencies, subscription between computation and </text><text x="0" y="51.520312499999996" font-family="Helvetica, Segoe UI Emoji" font-size="16px" fill="#1e1e1e" text-anchor="start" style="white-space: pre;" direction="ltr" dominant-baseline="alphabetic">  parent-child computation. So first it has to find out the root computation(marked as stale) which is the start point of this update path depending on </text><text x="0" y="69.9203125" font-family="Helvetica, Segoe UI Emoji" font-size="16px" fill="#1e1e1e" text-anchor="start" style="white-space: pre;" direction="ltr" dominant-baseline="alphabetic">  dependency trace, and then run it to tirgger the whole update chain. other computations in the update chain that are derived nodes are marked as pending. </text><text x="0" y="88.3203125" font-family="Helvetica, Segoe UI Emoji" font-size="16px" fill="#1e1e1e" text-anchor="start" style="white-space: pre;" direction="ltr" dominant-baseline="alphabetic"></text><text x="0" y="106.7203125" font-family="Helvetica, Segoe UI Emoji" font-size="16px" fill="#1e1e1e" text-anchor="start" style="white-space: pre;" direction="ltr" dominant-baseline="alphabetic">  When running the root computation, it must find out all ancestor computations through parent-child computation dependencies, and then run them from top</text><text x="0" y="125.12031249999998" font-family="Helvetica, Segoe UI Emoji" font-size="16px" fill="#1e1e1e" text-anchor="start" style="white-space: pre;" direction="ltr" dominant-baseline="alphabetic">  to bottom invoking order to reevaluate all computations.</text></g></svg>