<svg version="1.1" xmlns="http://www.w3.org/2000/svg" viewBox="0 0 779.3749999999999 456.9379500439797" width="1558.7499999999998" height="913.8759000879594">
  <!-- svg-source:excalidraw -->
  
  <defs>
    <style class="style-fonts">
      @font-face {
        font-family: "Virgil";
        src: url("https://excalidraw.com/Virgil.woff2");
      }
      @font-face {
        font-family: "Cascadia";
        src: url("https://excalidraw.com/Cascadia.woff2");
      }
      @font-face {
        font-family: "Assistant";
        src: url("https://excalidraw.com/Assistant-Regular.woff2");
      }
    </style>
    
  </defs>
  <rect x="0" y="0" width="779.3749999999999" height="456.9379500439797" fill="#ffffff"></rect><g stroke-linecap="round" transform="translate(295.912882662832 44.513911539726976) rotate(0 13.50335693359375 11.067245483398438)"><path d="M10.13 -0.1 C12.82 -0.73, 16.9 0.55, 19.5 1.64 C22.1 2.72, 24.57 4.25, 25.74 6.41 C26.9 8.57, 27.29 12.24, 26.5 14.6 C25.72 16.97, 23.52 19.39, 21.04 20.61 C18.56 21.83, 14.59 22.31, 11.65 21.94 C8.7 21.57, 5.24 20.07, 3.34 18.39 C1.45 16.71, 0.38 14.18, 0.28 11.88 C0.19 9.57, 1.04 6.45, 2.77 4.57 C4.5 2.69, 9.12 1.32, 10.69 0.61 C12.26 -0.09, 12.14 0.25, 12.19 0.33 M16.21 0.52 C18.87 0.72, 21.53 1.62, 23.41 3.31 C25.3 4.99, 27.5 8.13, 27.49 10.63 C27.49 13.14, 25.2 16.55, 23.39 18.35 C21.59 20.14, 19.54 21.05, 16.66 21.39 C13.79 21.73, 8.78 21.48, 6.12 20.37 C3.46 19.25, 1.58 16.86, 0.68 14.69 C-0.22 12.51, -0.23 9.46, 0.71 7.33 C1.64 5.19, 3.81 3.11, 6.29 1.87 C8.76 0.63, 14.02 0.12, 15.55 -0.14 C17.07 -0.39, 15.45 0.01, 15.43 0.34" stroke="#f08c00" stroke-width="2" fill="none"></path></g><g stroke-linecap="round" transform="translate(229.90012631517573 124.67522745769573) rotate(0 14.172698974609375 14.132354736328125)"><path d="M15.38 -0.15 C18.27 -0.21, 21.74 1.64, 23.94 3.78 C26.14 5.91, 28.18 9.66, 28.59 12.64 C29 15.62, 28.05 19.16, 26.4 21.67 C24.75 24.19, 21.7 26.8, 18.68 27.74 C15.67 28.68, 11.18 28.59, 8.3 27.31 C5.41 26.04, 2.75 22.85, 1.36 20.1 C-0.03 17.35, -0.81 13.64, -0.04 10.82 C0.73 8, 3.49 5.05, 5.99 3.17 C8.5 1.3, 13.49 0.07, 15 -0.41 C16.5 -0.88, 15.02 0.03, 15.02 0.32 M13.6 0.11 C16.48 -0.12, 20.35 1.05, 22.69 2.92 C25.03 4.79, 27.12 8.22, 27.66 11.35 C28.21 14.48, 27.41 18.98, 25.94 21.7 C24.47 24.42, 21.69 26.82, 18.84 27.69 C15.99 28.55, 11.61 27.99, 8.86 26.89 C6.11 25.79, 3.74 23.63, 2.32 21.09 C0.91 18.54, -0.02 14.63, 0.38 11.6 C0.78 8.57, 2.32 4.78, 4.72 2.92 C7.11 1.06, 13.29 0.91, 14.75 0.45 C16.2 -0.01, 13.66 -0.03, 13.44 0.15" stroke="#2f9e44" stroke-width="2" fill="none"></path></g><g stroke-linecap="round" transform="translate(297.7814129362695 122.86519938152385) rotate(0 14.307647705078125 12.70245361328125)"><path d="M13.58 0.5 C16.37 0.13, 19.85 1.06, 22.27 2.54 C24.7 4.02, 27.35 6.79, 28.13 9.37 C28.9 11.95, 28.23 15.57, 26.92 18.05 C25.61 20.53, 23.04 23.08, 20.28 24.26 C17.51 25.43, 13.28 25.83, 10.32 25.08 C7.37 24.32, 4.18 21.97, 2.54 19.72 C0.89 17.46, 0.16 14.27, 0.45 11.55 C0.74 8.84, 2.08 5.41, 4.28 3.42 C6.48 1.43, 12.01 0.09, 13.67 -0.37 C15.32 -0.82, 14.16 0.41, 14.22 0.71 M15.18 -0.26 C17.99 -0.28, 21.7 1.06, 23.84 3.13 C25.99 5.2, 27.7 9.32, 28.03 12.16 C28.35 15, 27.44 17.98, 25.8 20.16 C24.16 22.34, 21.21 24.54, 18.21 25.26 C15.21 25.99, 10.64 25.64, 7.78 24.51 C4.93 23.39, 2.19 21.01, 1.09 18.51 C0 16.01, 0.39 12.24, 1.22 9.49 C2.05 6.75, 3.56 3.72, 6.09 2.05 C8.61 0.38, 14.76 -0.32, 16.35 -0.52 C17.95 -0.72, 15.87 0.55, 15.65 0.84" stroke="#2f9e44" stroke-width="2" fill="none"></path></g><g stroke-linecap="round" transform="translate(361.0873516569726 119.35201578777385) rotate(0 14.307647705078125 12.70245361328125)"><path d="M11.36 0.58 C14.24 -0.28, 18.05 0.01, 20.75 1.21 C23.45 2.4, 26.41 5.18, 27.55 7.74 C28.68 10.3, 28.53 14.04, 27.56 16.58 C26.6 19.11, 24.23 21.43, 21.77 22.97 C19.31 24.51, 15.84 26.06, 12.8 25.81 C9.76 25.55, 5.59 23.57, 3.55 21.46 C1.5 19.35, 0.65 15.82, 0.53 13.14 C0.4 10.46, 1.06 7.56, 2.79 5.38 C4.52 3.19, 9.45 0.87, 10.91 0.05 C12.37 -0.77, 11.49 0.21, 11.54 0.48 M11.32 -0.11 C14.11 -0.84, 18.69 -0.14, 21.29 1.24 C23.88 2.63, 25.75 5.63, 26.89 8.21 C28.04 10.78, 28.93 14.15, 28.14 16.69 C27.34 19.22, 24.7 21.95, 22.14 23.41 C19.57 24.87, 15.93 25.76, 12.75 25.44 C9.56 25.11, 5.2 23.56, 3.01 21.46 C0.81 19.35, -0.44 15.48, -0.41 12.78 C-0.38 10.09, 1.24 7.3, 3.19 5.28 C5.14 3.26, 9.83 1.37, 11.3 0.67 C12.77 -0.03, 12.04 0.99, 12.01 1.06" stroke="#2f9e44" stroke-width="2" fill="none"></path></g><g stroke-linecap="round"><g transform="translate(302.240031100332 65.6266129557426) rotate(0 -24.121185302734375 30.397537231445312)"><path d="M0 0 C-8.04 10.13, -40.2 50.66, -48.24 60.8 M0 0 C-8.04 10.13, -40.2 50.66, -48.24 60.8" stroke="#1e1e1e" stroke-width="2" fill="none"></path></g></g><mask></mask><g stroke-linecap="round"><g transform="translate(311.3376263151757 70.22747355144573) rotate(0 0.244049072265625 25.71295166015625)"><path d="M0 0 C0.08 8.57, 0.41 42.85, 0.49 51.43 M0 0 C0.08 8.57, 0.41 42.85, 0.49 51.43" stroke="#1e1e1e" stroke-width="2" fill="none"></path></g></g><mask></mask><g stroke-linecap="round"><g transform="translate(325.904337740957 66.65941935222698) rotate(0 22.433380126953125 26.099746704101562)"><path d="M0 0 C7.48 8.7, 37.39 43.5, 44.87 52.2 M0 0 C7.48 8.7, 37.39 43.5, 44.87 52.2" stroke="#1e1e1e" stroke-width="2" fill="none"></path></g></g><mask></mask><g stroke-linecap="round" transform="translate(167.8241680632226 196.94942789714884) rotate(0 13.067428588867188 11.769287109375)"><path d="M26.13 11.77 C26.13 12.45, 26.07 13.14, 25.94 13.81 C25.8 14.48, 25.61 15.15, 25.35 15.79 C25.09 16.43, 24.76 17.06, 24.38 17.65 C24.01 18.24, 23.56 18.81, 23.08 19.33 C22.59 19.86, 22.05 20.35, 21.47 20.79 C20.89 21.22, 20.26 21.62, 19.6 21.96 C18.95 22.3, 18.25 22.6, 17.54 22.83 C16.83 23.06, 16.08 23.24, 15.34 23.36 C14.59 23.48, 13.82 23.54, 13.07 23.54 C12.31 23.54, 11.54 23.48, 10.8 23.36 C10.05 23.24, 9.31 23.06, 8.6 22.83 C7.89 22.6, 7.19 22.3, 6.53 21.96 C5.88 21.62, 5.25 21.22, 4.67 20.79 C4.09 20.35, 3.54 19.86, 3.06 19.33 C2.57 18.81, 2.13 18.24, 1.75 17.65 C1.37 17.06, 1.05 16.43, 0.79 15.79 C0.53 15.15, 0.33 14.48, 0.2 13.81 C0.07 13.14, 0 12.45, 0 11.77 C0 11.09, 0.07 10.4, 0.2 9.73 C0.33 9.05, 0.53 8.38, 0.79 7.74 C1.05 7.1, 1.37 6.47, 1.75 5.88 C2.13 5.29, 2.57 4.73, 3.06 4.2 C3.54 3.68, 4.09 3.19, 4.67 2.75 C5.25 2.32, 5.88 1.92, 6.53 1.58 C7.19 1.24, 7.89 0.94, 8.6 0.71 C9.31 0.48, 10.05 0.3, 10.8 0.18 C11.54 0.06, 12.31 0, 13.07 0 C13.82 0, 14.59 0.06, 15.34 0.18 C16.08 0.3, 16.83 0.48, 17.54 0.71 C18.25 0.94, 18.95 1.24, 19.6 1.58 C20.26 1.92, 20.89 2.32, 21.47 2.75 C22.05 3.19, 22.59 3.68, 23.08 4.2 C23.56 4.73, 24.01 5.29, 24.38 5.88 C24.76 6.47, 25.09 7.1, 25.35 7.74 C25.61 8.38, 25.8 9.05, 25.94 9.73 C26.07 10.4, 26.1 11.43, 26.13 11.77 C26.17 12.11, 26.17 11.43, 26.13 11.77" stroke="#2f9e44" stroke-width="2" fill="none"></path></g><g stroke-linecap="round" transform="translate(224.78153500658198 197.21187906902384) rotate(0 13.1494140625 11.861724853515625)"><path d="M26.3 11.86 C26.3 12.55, 26.23 13.25, 26.1 13.92 C25.97 14.6, 25.77 15.27, 25.51 15.92 C25.25 16.56, 24.92 17.2, 24.54 17.79 C24.16 18.39, 23.71 18.96, 23.22 19.49 C22.73 20.01, 22.18 20.51, 21.6 20.95 C21.02 21.39, 20.38 21.79, 19.72 22.13 C19.06 22.48, 18.36 22.77, 17.65 23.01 C16.93 23.24, 16.18 23.42, 15.43 23.54 C14.68 23.66, 13.91 23.72, 13.15 23.72 C12.39 23.72, 11.62 23.66, 10.87 23.54 C10.12 23.42, 9.37 23.24, 8.65 23.01 C7.94 22.77, 7.23 22.48, 6.57 22.13 C5.92 21.79, 5.28 21.39, 4.7 20.95 C4.11 20.51, 3.57 20.01, 3.08 19.49 C2.59 18.96, 2.14 18.39, 1.76 17.79 C1.38 17.2, 1.05 16.56, 0.79 15.92 C0.53 15.27, 0.33 14.6, 0.2 13.92 C0.07 13.25, 0 12.55, 0 11.86 C0 11.18, 0.07 10.48, 0.2 9.8 C0.33 9.13, 0.53 8.45, 0.79 7.8 C1.05 7.16, 1.38 6.53, 1.76 5.93 C2.14 5.34, 2.59 4.76, 3.08 4.24 C3.57 3.71, 4.11 3.22, 4.7 2.78 C5.28 2.33, 5.92 1.93, 6.57 1.59 C7.23 1.25, 7.94 0.95, 8.65 0.72 C9.37 0.48, 10.12 0.3, 10.87 0.18 C11.62 0.06, 12.39 0, 13.15 0 C13.91 0, 14.68 0.06, 15.43 0.18 C16.18 0.3, 16.93 0.48, 17.65 0.72 C18.36 0.95, 19.06 1.25, 19.72 1.59 C20.38 1.93, 21.02 2.33, 21.6 2.78 C22.18 3.22, 22.73 3.71, 23.22 4.24 C23.71 4.76, 24.16 5.34, 24.54 5.93 C24.92 6.53, 25.25 7.16, 25.51 7.8 C25.77 8.45, 25.97 9.13, 26.1 9.8 C26.23 10.48, 26.27 11.52, 26.3 11.86 C26.33 12.21, 26.33 11.52, 26.3 11.86" stroke="#2f9e44" stroke-width="2" fill="none"></path></g><g stroke-linecap="round" transform="translate(277.6907757292382 195.2158463541801) rotate(0 12.39324951171875 11.95208740234375)"><path d="M24.79 11.95 C24.79 12.64, 24.72 13.35, 24.6 14.03 C24.47 14.71, 24.28 15.39, 24.04 16.04 C23.79 16.69, 23.48 17.33, 23.13 17.93 C22.77 18.53, 22.35 19.1, 21.89 19.63 C21.43 20.16, 20.91 20.66, 20.36 21.11 C19.81 21.55, 19.21 21.96, 18.59 22.3 C17.97 22.65, 17.31 22.95, 16.63 23.18 C15.96 23.42, 15.25 23.6, 14.55 23.72 C13.84 23.84, 13.11 23.9, 12.39 23.9 C11.68 23.9, 10.95 23.84, 10.24 23.72 C9.53 23.6, 8.83 23.42, 8.15 23.18 C7.48 22.95, 6.82 22.65, 6.2 22.3 C5.58 21.96, 4.98 21.55, 4.43 21.11 C3.88 20.66, 3.36 20.16, 2.9 19.63 C2.44 19.1, 2.02 18.53, 1.66 17.93 C1.3 17.33, 0.99 16.69, 0.75 16.04 C0.5 15.39, 0.31 14.71, 0.19 14.03 C0.06 13.35, 0 12.64, 0 11.95 C0 11.26, 0.06 10.56, 0.19 9.88 C0.31 9.2, 0.5 8.51, 0.75 7.86 C0.99 7.21, 1.3 6.58, 1.66 5.98 C2.02 5.38, 2.44 4.8, 2.9 4.27 C3.36 3.74, 3.88 3.24, 4.43 2.8 C4.98 2.35, 5.58 1.95, 6.2 1.6 C6.82 1.26, 7.48 0.96, 8.15 0.72 C8.83 0.48, 9.53 0.3, 10.24 0.18 C10.95 0.06, 11.68 0, 12.39 0 C13.11 0, 13.84 0.06, 14.55 0.18 C15.25 0.3, 15.96 0.48, 16.63 0.72 C17.31 0.96, 17.97 1.26, 18.59 1.6 C19.21 1.95, 19.81 2.35, 20.36 2.8 C20.91 3.24, 21.43 3.74, 21.89 4.27 C22.35 4.8, 22.77 5.38, 23.13 5.98 C23.48 6.58, 23.79 7.21, 24.04 7.86 C24.28 8.51, 24.47 9.2, 24.6 9.88 C24.72 10.56, 24.76 11.61, 24.79 11.95 C24.82 12.3, 24.82 11.61, 24.79 11.95" stroke="#2f9e44" stroke-width="2" fill="none"></path></g><g stroke-linecap="round"><g transform="translate(234.32236752611323 148.4540360514457) rotate(0 -23.068283081054688 25.152587890625)"><path d="M0 0 C-7.69 8.38, -38.45 41.92, -46.14 50.31 M0 0 C-7.69 8.38, -38.45 41.92, -46.14 50.31" stroke="#1e1e1e" stroke-width="2" fill="none"></path></g></g><mask></mask><g stroke-linecap="round"><g transform="translate(244.30424008470698 155.3504899088676) rotate(0 -2.222076416015625 20.201690673828125)"><path d="M0 0 C-0.74 6.73, -3.7 33.67, -4.44 40.4 M0 0 C-0.74 6.73, -3.7 33.67, -4.44 40.4" stroke="#1e1e1e" stroke-width="2" fill="none"></path></g></g><mask></mask><g stroke-linecap="round"><g transform="translate(256.9744671354882 146.3921158854301) rotate(0 14.3544921875 24.591934204101562)"><path d="M0 0 C4.78 8.2, 23.92 40.99, 28.71 49.18 M0 0 C4.78 8.2, 23.92 40.99, 28.71 49.18" stroke="#1e1e1e" stroke-width="2" fill="none"></path></g></g><mask></mask><g transform="translate(86.6359356413476 127.95370035808635) rotate(0 63.960540771484375 8.824872208890227)"><text x="0" y="0" font-family="Virgil, Segoe UI Emoji" font-size="14.119795534224355px" fill="#1e1e1e" text-anchor="start" style="white-space: pre;" direction="ltr" dominant-baseline="text-before-edge">computation Owner</text></g><g transform="translate(12.832941866933538 196.04894571941446) rotate(0 72.52796173095703 10)"><text x="0" y="0" font-family="Virgil, Segoe UI Emoji" font-size="16px" fill="#1e1e1e" text-anchor="start" style="white-space: pre;" direction="ltr" dominant-baseline="text-before-edge">computation Owner</text></g><g transform="translate(187.85264096361323 43.26290445964885) rotate(0 49.7039794921875 10)"><text x="0" y="0" font-family="Virgil, Segoe UI Emoji" font-size="16px" fill="#1e1e1e" text-anchor="start" style="white-space: pre;" direction="ltr" dominant-baseline="text-before-edge">ROOT Owner</text></g><g stroke-linecap="round" transform="translate(347.6959637175195 192.59347086589884) rotate(0 12.39324951171875 11.95208740234375)"><path d="M24.79 11.95 C24.79 12.64, 24.72 13.35, 24.6 14.03 C24.47 14.71, 24.28 15.39, 24.04 16.04 C23.79 16.69, 23.48 17.33, 23.13 17.93 C22.77 18.53, 22.35 19.1, 21.89 19.63 C21.43 20.16, 20.91 20.66, 20.36 21.11 C19.81 21.55, 19.21 21.96, 18.59 22.3 C17.97 22.65, 17.31 22.95, 16.63 23.18 C15.96 23.42, 15.25 23.6, 14.55 23.72 C13.84 23.84, 13.11 23.9, 12.39 23.9 C11.68 23.9, 10.95 23.84, 10.24 23.72 C9.53 23.6, 8.83 23.42, 8.15 23.18 C7.48 22.95, 6.82 22.65, 6.2 22.3 C5.58 21.96, 4.98 21.55, 4.43 21.11 C3.88 20.66, 3.36 20.16, 2.9 19.63 C2.44 19.1, 2.02 18.53, 1.66 17.93 C1.3 17.33, 0.99 16.69, 0.75 16.04 C0.5 15.39, 0.31 14.71, 0.19 14.03 C0.06 13.35, 0 12.64, 0 11.95 C0 11.26, 0.06 10.56, 0.19 9.88 C0.31 9.2, 0.5 8.51, 0.75 7.86 C0.99 7.21, 1.3 6.58, 1.66 5.98 C2.02 5.38, 2.44 4.8, 2.9 4.27 C3.36 3.74, 3.88 3.24, 4.43 2.8 C4.98 2.35, 5.58 1.95, 6.2 1.6 C6.82 1.26, 7.48 0.96, 8.15 0.72 C8.83 0.48, 9.53 0.3, 10.24 0.18 C10.95 0.06, 11.68 0, 12.39 0 C13.11 0, 13.84 0.06, 14.55 0.18 C15.25 0.3, 15.96 0.48, 16.63 0.72 C17.31 0.96, 17.97 1.26, 18.59 1.6 C19.21 1.95, 19.81 2.35, 20.36 2.8 C20.91 3.24, 21.43 3.74, 21.89 4.27 C22.35 4.8, 22.77 5.38, 23.13 5.98 C23.48 6.58, 23.79 7.21, 24.04 7.86 C24.28 8.51, 24.47 9.2, 24.6 9.88 C24.72 10.56, 24.76 11.61, 24.79 11.95 C24.82 12.3, 24.82 11.61, 24.79 11.95" stroke="#2f9e44" stroke-width="2" fill="none"></path></g><g stroke-linecap="round" transform="translate(412.9928387175195 188.9044755045707) rotate(0 12.39324951171875 11.95208740234375)"><path d="M24.79 11.95 C24.79 12.64, 24.72 13.35, 24.6 14.03 C24.47 14.71, 24.28 15.39, 24.04 16.04 C23.79 16.69, 23.48 17.33, 23.13 17.93 C22.77 18.53, 22.35 19.1, 21.89 19.63 C21.43 20.16, 20.91 20.66, 20.36 21.11 C19.81 21.55, 19.21 21.96, 18.59 22.3 C17.97 22.65, 17.31 22.95, 16.63 23.18 C15.96 23.42, 15.25 23.6, 14.55 23.72 C13.84 23.84, 13.11 23.9, 12.39 23.9 C11.68 23.9, 10.95 23.84, 10.24 23.72 C9.53 23.6, 8.83 23.42, 8.15 23.18 C7.48 22.95, 6.82 22.65, 6.2 22.3 C5.58 21.96, 4.98 21.55, 4.43 21.11 C3.88 20.66, 3.36 20.16, 2.9 19.63 C2.44 19.1, 2.02 18.53, 1.66 17.93 C1.3 17.33, 0.99 16.69, 0.75 16.04 C0.5 15.39, 0.31 14.71, 0.19 14.03 C0.06 13.35, 0 12.64, 0 11.95 C0 11.26, 0.06 10.56, 0.19 9.88 C0.31 9.2, 0.5 8.51, 0.75 7.86 C0.99 7.21, 1.3 6.58, 1.66 5.98 C2.02 5.38, 2.44 4.8, 2.9 4.27 C3.36 3.74, 3.88 3.24, 4.43 2.8 C4.98 2.35, 5.58 1.95, 6.2 1.6 C6.82 1.26, 7.48 0.96, 8.15 0.72 C8.83 0.48, 9.53 0.3, 10.24 0.18 C10.95 0.06, 11.68 0, 12.39 0 C13.11 0, 13.84 0.06, 14.55 0.18 C15.25 0.3, 15.96 0.48, 16.63 0.72 C17.31 0.96, 17.97 1.26, 18.59 1.6 C19.21 1.95, 19.81 2.35, 20.36 2.8 C20.91 3.24, 21.43 3.74, 21.89 4.27 C22.35 4.8, 22.77 5.38, 23.13 5.98 C23.48 6.58, 23.79 7.21, 24.04 7.86 C24.28 8.51, 24.47 9.2, 24.6 9.88 C24.72 10.56, 24.76 11.61, 24.79 11.95 C24.82 12.3, 24.82 11.61, 24.79 11.95" stroke="#2f9e44" stroke-width="2" fill="none"></path></g><g stroke-linecap="round"><g transform="translate(373.2449749479882 146.0032303873832) rotate(0 -7.35211181640625 22.813995361328125)"><path d="M0 0 C-2.45 7.6, -12.25 38.02, -14.7 45.63 M0 0 C-2.45 7.6, -12.25 38.02, -14.7 45.63" stroke="#1e1e1e" stroke-width="2" fill="none"></path></g></g><mask></mask><g stroke-linecap="round"><g transform="translate(383.7216595183007 142.8347733561332) rotate(0 17.65472412109375 23.960586547851562)"><path d="M0 0 C5.88 7.99, 29.42 39.93, 35.31 47.92 M0 0 C5.88 7.99, 29.42 39.93, 35.31 47.92" stroke="#1e1e1e" stroke-width="2" fill="none"></path></g></g><mask></mask><g stroke-linecap="round"><g transform="translate(391.5531716950974 126.40174921436308) rotate(0 52.45545847720018 -25.262365200650805)"><path d="M-0.76 -0.45 C16.46 -9.07, 86.49 -43.57, 104.09 -51.72 M1.05 -1.74 C18.57 -10.26, 89.2 -42.59, 106.38 -50.81" stroke="#f08c00" stroke-width="2" fill="none"></path></g><g transform="translate(391.5531716950974 126.40174921436308) rotate(0 52.45545847720018 -25.262365200650805)"><path d="M88.71 -33.12 C94.46 -40.88, 99.73 -46.07, 106.38 -50.81 M88.71 -33.12 C95.04 -39.98, 102.93 -46.43, 106.38 -50.81" stroke="#f08c00" stroke-width="2" fill="none"></path></g><g transform="translate(391.5531716950974 126.40174921436308) rotate(0 52.45545847720018 -25.262365200650805)"><path d="M81.47 -48.62 C89.89 -50.63, 97.82 -50.11, 106.38 -50.81 M81.47 -48.62 C90.73 -49.35, 101.5 -49.63, 106.38 -50.81" stroke="#f08c00" stroke-width="2" fill="none"></path></g></g><mask></mask><g stroke-linecap="round" transform="translate(500.52294926554646 33.84211117476282) rotate(0 84.1797501197774 38.401845977284296)"><path d="M19.2 0 C58.39 1.08, 95.66 1.24, 149.16 0 M149.16 0 C161.19 -1.65, 168.61 6.75, 168.36 19.2 M168.36 19.2 C169.09 29.52, 168.24 38.09, 168.36 57.6 M168.36 57.6 C170.36 71.83, 161.36 76.85, 149.16 76.8 M149.16 76.8 C113.74 74.48, 76.18 75.64, 19.2 76.8 M19.2 76.8 C8.26 78.65, 1.11 69.72, 0 57.6 M0 57.6 C1.89 46.64, 0.06 36.8, 0 19.2 M0 19.2 C0.33 7.95, 7.22 1.67, 19.2 0" stroke="#f08c00" stroke-width="2.5" fill="none" stroke-dasharray="1.5 8"></path></g><g stroke-linecap="round" transform="translate(524.7536765900011 41.22346015547602) rotate(0 11.289938934661336 13.193856146614337)"><path d="M12 0 C14.65 3.51, 17.31 7.03, 22.58 14 M12 0 C15.85 5.1, 19.71 10.2, 22.58 14 M22.58 14 C18.63 18.63, 14.67 23.26, 12 26.39 M22.58 14 C20.14 16.86, 17.69 19.72, 12 26.39 M12 26.39 C8.14 22.41, 4.29 18.43, 0 14 M12 26.39 C8.32 22.59, 4.64 18.79, 0 14 M0 14 C2.87 10.65, 5.75 7.3, 12 0 M0 14 C3.94 9.4, 7.88 4.8, 12 0" stroke="#1e1e1e" stroke-width="1" fill="none"></path></g><g stroke-linecap="round" transform="translate(593.2358358978207 75.01446106110235) rotate(323.41623853459976 11.289938934661336 13.193856146614337)"><path d="M12 0 C15.79 5.02, 19.59 10.04, 22.58 14 M12 0 C14.29 3.03, 16.58 6.06, 22.58 14 M22.58 14 C18.65 18.6, 14.73 23.2, 12 26.39 M22.58 14 C18.78 18.44, 14.99 22.89, 12 26.39 M12 26.39 C8.06 22.32, 4.12 18.25, 0 14 M12 26.39 C9.55 23.86, 7.1 21.33, 0 14 M0 14 C2.6 10.97, 5.19 7.94, 12 0 M0 14 C3.14 10.34, 6.28 6.67, 12 0" stroke="#1e1e1e" stroke-width="1" fill="none"></path></g><g stroke-linecap="round" transform="translate(556.5698518541415 72.3511392976613) rotate(0 11.289938934661336 13.193856146614337)"><path d="M12 0 C15.43 4.54, 18.86 9.07, 22.58 14 M12 0 C14.65 3.51, 17.3 7.02, 22.58 14 M22.58 14 C19.25 17.9, 15.92 21.8, 12 26.39 M22.58 14 C20.44 16.5, 18.31 19, 12 26.39 M12 26.39 C7.26 21.5, 2.52 16.6, 0 14 M12 26.39 C8.12 22.38, 4.24 18.38, 0 14 M0 14 C2.56 11.01, 5.12 8.02, 12 0 M0 14 C3.77 9.6, 7.54 5.2, 12 0" stroke="#1e1e1e" stroke-width="1" fill="none"></path></g><g stroke-linecap="round" transform="translate(521.9650430115133 77.41166055555352) rotate(0 11.289938934661336 13.193856146614337)"><path d="M12 0 C14.27 3.01, 16.55 6.02, 22.58 14 M12 0 C15.04 4.03, 18.09 8.06, 22.58 14 M22.58 14 C19.12 18.06, 15.65 22.11, 12 26.39 M22.58 14 C18.73 18.51, 14.88 23.01, 12 26.39 M12 26.39 C8.89 23.18, 5.78 19.96, 0 14 M12 26.39 C9.18 23.47, 6.35 20.56, 0 14 M0 14 C4.01 9.32, 8.02 4.65, 12 0 M0 14 C4.57 8.67, 9.14 3.34, 12 0" stroke="#1e1e1e" stroke-width="1" fill="none"></path></g><g stroke-linecap="round" transform="translate(588.3935320250571 39.68831853507295) rotate(0 11.289938934661336 13.193856146614337)"><path d="M12 0 C16.23 5.59, 20.45 11.19, 22.58 14 M12 0 C15.18 4.21, 18.37 8.43, 22.58 14 M22.58 14 C18.99 18.2, 15.4 22.4, 12 26.39 M22.58 14 C19.75 17.32, 16.92 20.63, 12 26.39 M12 26.39 C7.34 21.58, 2.69 16.78, 0 14 M12 26.39 C9.12 23.42, 6.24 20.44, 0 14 M0 14 C4.28 9.01, 8.56 4.02, 12 0 M0 14 C3.14 10.34, 6.27 6.68, 12 0" stroke="#1e1e1e" stroke-width="1" fill="none"></path></g><g stroke-linecap="round" transform="translate(622.3360112789319 43.81998537317271) rotate(0 11.289938934661336 13.193856146614337)"><path d="M12 0 C15.81 5.04, 19.61 10.07, 22.58 14 M12 0 C15.43 4.54, 18.86 9.07, 22.58 14 M22.58 14 C20 17.02, 17.42 20.05, 12 26.39 M22.58 14 C18.89 18.32, 15.21 22.63, 12 26.39 M12 26.39 C8.86 23.15, 5.72 19.91, 0 14 M12 26.39 C7.23 21.47, 2.47 16.55, 0 14 M0 14 C3.88 9.48, 7.76 4.95, 12 0 M0 14 C3.21 10.26, 6.41 6.52, 12 0" stroke="#1e1e1e" stroke-width="1" fill="none"></path></g><g transform="translate(503.5905870986003 11.673827657199752) rotate(0 30.095985412597656 10.000000000000007)"><text x="0" y="0" font-family="Virgil, Segoe UI Emoji" font-size="16px" fill="#1e1e1e" text-anchor="start" style="white-space: pre;" direction="ltr" dominant-baseline="text-before-edge">context</text></g><g transform="translate(573.3152541714464 10) rotate(0 42.59197998046875 10.000000000000007)"><text x="0" y="0" font-family="Virgil, Segoe UI Emoji" font-size="16px" fill="#1e1e1e" text-anchor="start" style="white-space: pre;" direction="ltr" dominant-baseline="text-before-edge">(key value)</text></g><g transform="translate(10 293.33795004397973) rotate(0 379.68749999999994 76.79999999999998)"><text x="0" y="0" font-family="Cascadia, Segoe UI Emoji" font-size="16px" fill="#1e1e1e" text-anchor="start" style="white-space: pre;" direction="ltr" dominant-baseline="text-before-edge">1.  Before I suppose that context could be fulfilled using stack, because </text><text x="0" y="19.2" font-family="Cascadia, Segoe UI Emoji" font-size="16px" fill="#1e1e1e" text-anchor="start" style="white-space: pre;" direction="ltr" dominant-baseline="text-before-edge">    the top of stack is the place where providers store. That's true, however </text><text x="0" y="38.4" font-family="Cascadia, Segoe UI Emoji" font-size="16px" fill="#1e1e1e" text-anchor="start" style="white-space: pre;" direction="ltr" dominant-baseline="text-before-edge">    we have already the owner or component tree. any one of branch of that tree</text><text x="0" y="57.599999999999994" font-family="Cascadia, Segoe UI Emoji" font-size="16px" fill="#1e1e1e" text-anchor="start" style="white-space: pre;" direction="ltr" dominant-baseline="text-before-edge">    could work as a stack, so it's unnecessary to involve another stack, </text><text x="0" y="76.8" font-family="Cascadia, Segoe UI Emoji" font-size="16px" fill="#1e1e1e" text-anchor="start" style="white-space: pre;" direction="ltr" dominant-baseline="text-before-edge">    simply put providers created on each corresponding owner or component node. </text><text x="0" y="96" font-family="Cascadia, Segoe UI Emoji" font-size="16px" fill="#1e1e1e" text-anchor="start" style="white-space: pre;" direction="ltr" dominant-baseline="text-before-edge">    For betterment, avoiding search up till end of that owner or component tree, </text><text x="0" y="115.19999999999999" font-family="Cascadia, Segoe UI Emoji" font-size="16px" fill="#1e1e1e" text-anchor="start" style="white-space: pre;" direction="ltr" dominant-baseline="text-before-edge">    using providers from parent node override nodes with same type in the child </text><text x="0" y="134.4" font-family="Cascadia, Segoe UI Emoji" font-size="16px" fill="#1e1e1e" text-anchor="start" style="white-space: pre;" direction="ltr" dominant-baseline="text-before-edge">    node is a high performant way, as `useContext` always pick the latest one. </text></g></svg>